<?xml version="1.0" encoding="UTF-8"?>
<svg xmlns="http://www.w3.org/2000/svg" xmlns:xlink="http://www.w3.org/1999/xlink" width="24px" height="24px" viewBox="0 0 24 24" version="1.1">
<g id="surface1">
<path style=" stroke:none;fill-rule:nonzero;fill:rgb(100%,100%,100%);fill-opacity:1;" d="M 11.417969 0.015625 C 5.078125 0.316406 0.078125 5.59375 0.0976562 11.941406 C 0.101562 13.871094 0.570312 15.695312 1.394531 17.308594 L 0.128906 23.441406 C 0.0585938 23.773438 0.359375 24.066406 0.6875 23.988281 L 6.699219 22.5625 C 8.246094 23.332031 9.980469 23.777344 11.816406 23.804688 C 18.292969 23.902344 23.695312 18.757812 23.898438 12.285156 C 24.113281 5.339844 18.382812 -0.316406 11.417969 0.015625 Z M 18.589844 18.492188 C 16.828125 20.253906 14.488281 21.222656 12 21.222656 C 10.542969 21.222656 9.148438 20.894531 7.851562 20.25 L 7.015625 19.835938 L 3.328125 20.707031 L 4.105469 16.941406 L 3.691406 16.132812 C 3.019531 14.816406 2.679688 13.394531 2.679688 11.902344 C 2.679688 9.414062 3.648438 7.074219 5.410156 5.3125 C 7.152344 3.566406 9.53125 2.582031 12 2.582031 C 14.488281 2.582031 16.828125 3.550781 18.589844 5.3125 C 20.351562 7.074219 21.320312 9.414062 21.320312 11.902344 C 21.320312 14.371094 20.335938 16.75 18.589844 18.492188 Z M 18.589844 18.492188 "/>
<path style=" stroke:none;fill-rule:nonzero;fill:rgb(100%,100%,100%);fill-opacity:1;" d="M 17.777344 14.484375 L 15.472656 13.824219 C 15.167969 13.734375 14.839844 13.820312 14.621094 14.046875 L 14.058594 14.621094 C 13.820312 14.863281 13.457031 14.941406 13.144531 14.8125 C 12.054688 14.371094 9.757812 12.332031 9.171875 11.3125 C 9.003906 11.015625 9.03125 10.648438 9.238281 10.382812 L 9.730469 9.746094 C 9.925781 9.496094 9.964844 9.160156 9.835938 8.871094 L 8.867188 6.675781 C 8.636719 6.152344 7.964844 6 7.523438 6.371094 C 6.882812 6.914062 6.117188 7.742188 6.023438 8.65625 C 5.863281 10.273438 6.554688 12.308594 9.175781 14.753906 C 12.199219 17.578125 14.625 17.953125 16.203125 17.570312 C 17.097656 17.351562 17.8125 16.484375 18.265625 15.773438 C 18.570312 15.289062 18.328125 14.644531 17.777344 14.484375 Z M 17.777344 14.484375 "/>
</g>
</svg>
